HIERARCHY
ROOT Pelvis
{
	OFFSET 0.32 0 0
	CHANNELS 6 Xposition Yposition Zposition Zrotation Xrotation Yrotation
	JOINT SpineShoulder
	{
		OFFSET 0 6.740009 0
		CHANNELS 3 Zrotation Xrotation Yrotation
		JOINT Neck
		{
			OFFSET 0 2.640004 0
			CHANNELS 3 Zrotation Xrotation Yrotation
			End Site
			{
				OFFSET 0 4.719998 0
			}
		}
		JOINT ShoulderLeft
		{
			OFFSET 3.340001 0.6799955 0
			CHANNELS 3 Zrotation Xrotation Yrotation
			JOINT ElbowLeft
			{
				OFFSET 5.307964 0 0
				CHANNELS 3 Zrotation Xrotation Yrotation
				End Site
				{
					OFFSET 4.786495 0 0
				}
			}
		}
		JOINT ShoulderRight
		{
			OFFSET -3.300001 0.6799955 0
			CHANNELS 3 Zrotation Xrotation Yrotation
			JOINT ElbowRight
			{
				OFFSET -5.307964 0 0
				CHANNELS 3 Zrotation Xrotation Yrotation
				End Site
				{
					OFFSET -4.786495 0 0
				}
			}
		}
	}
	JOINT HipLeft
	{
		OFFSET 2.560001 -1.599997 0
		CHANNELS 3 Zrotation Xrotation Yrotation
		JOINT KneeLeft
		{
			OFFSET 0 -8.508625 0
			CHANNELS 3 Zrotation Xrotation Yrotation
			End Site
			{
				OFFSET 0 -7.880188 0
			}
		}
	}
	JOINT HipRight
	{
		OFFSET -2.560001 -1.599997 0
		CHANNELS 3 Zrotation Xrotation Yrotation
		JOINT KneeRight
		{
			OFFSET 0 -8.508625 0
			CHANNELS 3 Zrotation Xrotation Yrotation
			End Site
			{
				OFFSET 0 -7.880188 0
			}
		}
	}
}
MOTION
Frames: 19
Frame Time: 0.03333334
0 0 0 0 0 0 0 0 0 0 0 0 0 0 0 0 0 0 0 0 0 0 0 0 0 0 0 0 0 0 0 0 0 0 0 0
0 0 0 -1.918895 10.6057 1.036407 -357.899 12.52759 357.2144 -357.8467 358.3134 0.4597102 -70.46101 340.0041 349.8255 -9.956859 37.67963 321.7945 -294.742 347.1672 11.33934 -346.6434 28.24237 37.7164 -0.59455 355.3395 359.8501 -357.7585 21.307 0.1356635 -357.306 1.26453 0.2404669 -1.096465 16.84937 359.9015
0 0 0 -1.723084 11.42122 3.577068 -357.1354 13.08148 355.7013 -358.9273 356.5351 0.2651892 -69.67226 339.9454 350.3603 -11.94889 35.67284 322.7422 -295.3921 343.1586 10.51448 -341.3939 26.88691 29.88267 -0.05517255 355.244 359.9499 -356.6178 23.92573 359.707 -357.3139 0.3365865 0.2657522 -1.141645 17.16632 359.7953
0 0 0 -3.633418 10.46271 358.5242 -357.3863 15.7088 358.7302 -357.3918 358.2797 0.6095769 -70.75362 334.0262 350.5153 -9.810493 37.00167 326.3946 -295.7143 347.2215 12.83268 -345.9657 22.6314 35.16516 -0.6016629 356.4052 359.8037 -354.2371 23.74025 0.08174102 -356.3764 0.6958522 0.3301471 -359.4106 18.69599 0.005284721
0 0 0 -2.750997 10.38642 359.4065 -359.1521 13.40605 358.4498 -357.2024 358.265 0.5850765 -70.71718 337.8989 350.3612 -7.080719 34.97508 325.3884 -293.7536 346.9822 10.09451 -343.6606 25.69628 34.12841 -1.829637 357.4297 359.729 -354.5288 21.55295 0.2305456 -356.8689 359.7072 0.2840609 -359.04 25.3698 359.8027
0 0 0 -2.947643 10.38686 1.093198 -359.8611 15.83169 358.1592 -357.1818 356.9713 0.6295434 -72.73106 338.5964 349.1823 -0.1653116 31.30743 322.8448 -293.1287 342.6168 10.5056 -342.2764 27.95098 33.01059 -2.067565 355.8463 359.6367 -352.5347 26.26358 359.7925 -356.479 1.275002 0.3133549 -358.7409 21.26178 359.7404
0 0 0 -2.775315 10.84847 359.975 -359.1786 13.67937 358.6115 -357.1074 357.8578 0.6283453 -73.30632 337.7355 351.5163 -3.773749 30.36006 328.3902 -292.5559 346.0718 11.50184 -343.8935 24.55828 31.12866 -1.338057 354.306 359.6684 -353.8253 24.62943 359.8292 -356.1726 0.1904761 0.361371 -359.8245 16.58341 359.8348
0 0 0 -1.827668 10.40352 0.5888758 -359.1359 15.66578 358.3463 -0.381519 357.202 359.8621 -71.32632 337.6251 350.5716 -6.416449 29.74905 328.0971 -294.1161 342.1378 9.681329 -345.1411 27.85263 34.37822 -2.421026 356.6421 359.6582 -353.5238 22.05981 359.9465 -357.8038 1.541756 0.1942447 -358.8216 17.31238 359.8682
0 0 0 -1.821368 10.51619 5.207889 -357.8181 15.93274 356.6912 -358.1347 356.5182 0.4876581 -71.69952 342.4809 350.792 -7.872398 25.05989 327.6066 -293.9674 335.5456 8.317829 -343.0325 33.51403 31.45374 -2.909179 354.9362 359.5636 -355.4958 27.05166 0.04368548 -357.342 358.9838 0.2630317 -0.6813494 19.01797 359.7511
0 0 0 -1.36495 11.21119 1.507913 -357.3279 16.6666 356.4408 -358.2519 354.1643 0.5113099 -71.91525 334.8067 350.0109 -6.662367 31.6159 326.9911 -295.3424 341.7397 10.48352 -343.0019 25.28848 31.40219 -1.952167 353.4109 359.6352 -357.3858 28.0625 0.2096605 -357.6302 0.3249299 0.2296325 -1.119272 16.49597 359.8566
0 0 0 -1.330289 10.02467 4.083993 -358.0739 14.11867 356.6345 -358.5363 357.5663 0.3416733 -70.65044 342.6247 351.157 -7.426697 27.36277 326.3243 -294.2049 339.1523 7.270743 -344.8118 30.1531 31.20899 -3.062401 356.1054 359.6054 -358.8445 23.80037 0.6024314 -357.6652 359.9048 0.2075878 -0.5677356 22.19686 359.7173
0 0 0 -1.712471 9.87866 6.531986 -358.0208 15.06067 356.8751 -358.7245 356.5685 0.3213595 -70.62984 346.1094 351.4931 -7.939062 21.56601 327.7394 -292.518 334.3597 7.937008 -343.8583 34.50881 29.03769 -2.871637 355.1651 359.6039 -359.3572 30.74796 0.8121572 -357.3391 359.4613 0.2426276 -359.8536 24.99004 359.5072
0 0 0 -2.57603 9.751703 7.56132 -358.1866 15.8962 357.5456 -358.9124 355.8301 0.2658204 -67.8813 346.4487 353.0024 -10.0828 23.25818 323.5189 -292.0538 331.56 8.702131 -342.5886 37.3965 28.60155 -1.795551 355.8134 359.731 -2.758837 29.22566 1.402161 -356.0549 0.2868831 0.3386236 -357.8858 20.65085 359.303
0 0 0 -2.718747 10.35228 7.957508 -358.8973 15.65835 357.4431 -357.6105 355.8399 0.5884532 -70.61991 346.7263 353.1909 -3.896626 21.67627 321.8501 -289.9507 332.1605 10.6094 -343.3557 37.34974 28.50997 -2.441076 356.2149 359.6511 -359.5481 20.34382 0.6204631 -355.6826 359.4512 0.4158106 -359.0833 17.49552 359.4594
0 0 0 -2.785973 10.36877 7.58712 -358.761 14.65014 357.3007 -357.3515 357.6513 0.6159313 -70.9447 347.6646 352.1476 -4.727858 21.58397 323.8823 -290.4518 334.6409 11.57829 -344.0232 38.05195 31.66333 -2.63182 356.6422 359.6372 -358.9397 19.22453 0.5799566 -356.1261 359.9349 0.3621063 -0.8315842 17.90971 359.6561
0 0 0 -2.935114 10.06102 6.14358 -358.9751 13.44074 358.5612 -357.4365 358.6432 0.5497512 -70.9748 346.4448 355.4653 -4.476328 22.29886 323.8286 -291.7526 335.356 9.650521 -343.0933 37.92342 31.63876 -1.595755 356.9409 359.7642 -359.5493 21.28485 0.6014974 -355.7071 359.8108 0.3912225 -1.23851 20.24464 359.6664
0 0 0 -3.118776 10.50242 8.895986 -358.7351 15.30189 357.0992 -356.5916 356.14 0.8450658 -69.81793 348.5714 351.9494 -5.198967 19.48815 323.7778 -290.0732 333.3863 13.82628 -344.6378 38.77853 31.46165 -1.629892 355.6622 359.7283 -359.6419 23.90417 0.6100887 -355.8789 358.8688 0.4170893 -0.5570338 16.71299 359.6378
0 0 0 -3.180698 10.72427 9.30449 -358.9278 16.18891 357.1157 -356.672 355.1936 0.8618243 -69.58961 348.2359 351.6949 -5.395121 18.95981 323.597 -290.8363 330.8022 12.70174 -341.0711 38.72995 28.10254 -1.348912 355.458 359.7597 -0.148294 26.38648 0.6864781 -357.709 358.9716 0.2299146 -356.9715 17.28642 359.668
0 0 0 -2.91853 10.39469 6.908526 -359.8872 15.16823 357.7609 -356.6755 355.6378 0.7785001 -70.07539 346.1903 352.5111 -1.335819 21.22298 322.2657 -289.6239 335.1352 12.11053 -344.8016 33.99096 28.36647 -4.277328 357.737 359.4838 -355.9105 25.57574 0.7371382 -357.4381 0.787563 0.2330768 -357.8006 16.97994 359.7512
